<svg xmlns="http://www.w3.org/2000/svg" viewBox="0 0 414 144">
  <defs>
    <filter x="-6.5%" y="-7.4%" width="112.9%" height="114.9%" filterUnits="objectBoundingBox" id="filter-1">
      <feOffset in="SourceAlpha" result="shadowOffsetOuter1"/>
      <feGaussianBlur stdDeviation="7.5" in="shadowOffsetOuter1" result="shadowBlurOuter1"/>
      <feColorMatrix values="0 0 0 0 0 0 0 0 0 0 0 0 0 0 0 0 0 0 0.5 0" in="shadowBlurOuter1" result="shadowMatrixOuter1"/>
      <feMerge>
        <feMergeNode in="shadowMatrixOuter1"/>
        <feMergeNode in="SourceGraphic"/>
      </feMerge>
    </filter>
  </defs>
  <g id="Page-1" stroke="none" stroke-width="1" fill="none" fill-rule="evenodd">
    <g id="iPhone-11-Pro-Max" transform="translate(0 -752)" fill="#FFF">
      <g id="Group-6" filter="url(#filter-1)" transform="translate(-17 766.96)">
        <rect id="Rectangle" x="16" y="36.04" width="420" height="360" rx="16"/>
        <circle id="Oval" cx="74" cy="30.04" r="22"/>
        <circle id="Oval-Copy-16" cx="48" cy="41.04" r="22"/>
        <circle id="Oval-Copy-19" cx="22" cy="47.04" r="22"/>
        <circle id="Oval-Copy-3" cx="113" cy="35.04" r="22"/>
        <circle id="Oval-Copy-18" cx="133" cy="25.04" r="22"/>
        <circle id="Oval-Copy-17" cx="98" cy="22.04" r="22"/>
        <circle id="Oval-Copy-4" cx="167" cy="35.04" r="22"/>
        <circle id="Oval-Copy-4" cx="157" cy="30.04" r="22"/>
        <circle id="Oval-Copy-4" cx="198" cy="25.04" r="22"/>
        <circle id="Oval-Copy-8" cx="230" cy="35.04" r="22"/>
        <circle id="Oval-Copy-8" cx="256" cy="30.04" r="22"/>
        <circle id="Oval-Copy-11" cx="291" cy="35.04" r="22"/>
        <circle id="Oval-Copy-12" cx="321" cy="35.04" r="22"/>
        <circle id="Oval-Copy-12" cx="347" cy="22.04" r="22"/>
        <circle id="Oval-Copy-13" cx="375" cy="35.04" r="22"/>
        <circle id="Oval-Copy-15" cx="406" cy="35.04" r="22"/>
        <circle id="Oval-Copy-15" cx="434" cy="44.04" r="22"/>
      </g>
    </g>
  </g>
</svg>
