<svg xmlns="http://www.w3.org/2000/svg" xmlns:xlink="http://www.w3.org/1999/xlink" viewBox="0 0 372 423">
  <defs>
    <filter x="-21.2%" y="-18.3%" width="142.5%" height="136.6%" filterUnits="objectBoundingBox" id="filter-1">
      <feOffset dy="12" in="SourceAlpha" result="shadowOffsetOuter1"/>
      <feGaussianBlur stdDeviation="12" in="shadowOffsetOuter1" result="shadowBlurOuter1"/>
      <feColorMatrix values="0 0 0 0 0 0 0 0 0 0 0 0 0 0 0 0 0 0 0.5 0" in="shadowBlurOuter1" result="shadowMatrixOuter1"/>
      <feMerge>
        <feMergeNode in="shadowMatrixOuter1"/>
        <feMergeNode in="SourceGraphic"/>
      </feMerge>
    </filter>
    <path id="path-2" d="M0 .42h324.298v375.809H0z"/>
  </defs>
  <g id="Page-1" stroke="none" stroke-width="1" fill="none" fill-rule="evenodd">
    <g id="iPhone-11-Pro-Max" transform="translate(-21 -181)">
      <g id="Group-94" filter="url(#filter-1)" transform="translate(45 192)">
        <path d="M273.617 19.457c.411-.081.914.177 1.232-.201.409-.486.874-1.04.904-1.66.03-.63-.502-1.153-.856-1.677-.314-.462-.839-.277-1.276-.276-.44 0-.976-.198-1.292.23-.377.51-.844 1.075-.91 1.657-.07.61.576 1.097.924 1.625.317.481.84.22 1.274.302m1.38 9.415c0 1.285.004 2.413-.001 3.54-.002.67-.87 1.606-1.463 1.588-.606-.018-1.477-.946-1.484-1.601-.01-.927-.011-1.854-.002-2.781.005-.514-.145-.68-.619-.37-.297.196-.624.347-.934.523-.69.392-1.57.227-1.92-.363-.355-.597-.038-1.645.623-2.035.726-.427 1.446-.864 2.19-1.254.466-.245.68-.565.633-1.102a10.385 10.385 0 01-.005-1.314c.022-.515-.18-.504-.529-.27-.465.314-.945.606-1.412.919-.432.29-.651.21-.648-.34.004-.567-.01-1.134 0-1.7.007-.385-.08-.55-.473-.307-.455.28-.921.547-1.391.802-.345.188-.407.491-.405.847.004.926.008 1.854-.005 2.78-.01.684-.904 1.598-1.5 1.558-.596-.04-1.219-.807-1.23-1.522-.006-.387-.016-.774 0-1.159.025-.583-.195-.592-.625-.333-.808.487-1.633.944-2.455 1.41-.514.29-1.548.149-2.024-.364-.474-.51-.255-1.165-.164-1.76.041-.271.349-.353.568-.476.824-.461 1.654-.908 2.472-1.379.186-.107.51-.147.485-.416-.024-.244-.34-.273-.532-.383a6.622 6.622 0 00-.887-.446c-.526-.201-.73-.55-.706-1.126.022-.537.044-.972.61-1.28.583-.315 1.046-.493 1.661-.04.696.512 1.495.88 2.22 1.355.398.26.72.268 1.109 0 .397-.276.83-.498 1.25-.74.32-.186.318-.376.005-.561-.504-.3-1.004-.61-1.519-.89-.454-.246-.392-.457-.001-.695.435-.266.85-.571 1.3-.806.584-.303.373-.426-.03-.74-1.126-.882-2.181-1.016-3.315-.02-.396.35-.925.54-1.367.842-.386.264-.727.26-1.129.034-.429-.24-.842-.41-.819-1.053.023-.644 0-1.215.738-1.508.49-.194.928-.519 1.527-.864-.965-.542-1.834-1.035-2.706-1.52-.921-.51-1.355-1.601-.915-2.316.403-.656 1.567-.813 2.419-.322.75.434 1.505.861 2.246 1.313.413.251.538.12.524-.322-.012-.437-.003-.875 0-1.313.004-.744.604-1.508 1.19-1.522.63-.014 1.484.866 1.486 1.546.003.875.026 1.753-.018 2.626-.03.596.167.99.705 1.223.531.23 1.1.937 1.508.722.45-.238.138-1.077.158-1.651.037-1.041.046-1.063.94-.573.402.22.806.439 1.205.665.303.172.479.138.476-.262-.006-.592-.012-1.184-.003-1.777.005-.376-.243-.535-.517-.692-.82-.466-1.64-.934-2.453-1.411-.515-.302-.773-1.338-.484-1.895.28-.54 1.218-.807 1.776-.504 1.714.93 1.714.93 1.714-1.025V2.903c.004-1.055.279-1.468 1.242-1.864.563-.233 1.692.63 1.704 1.326.018 1.005.02 2.009.002 3.014-.01.529.152.666.615.38.348-.214.711-.401 1.065-.606.424-.245.799-.461 1.317-.08.51.374.874.72.81 1.426-.04.444-.216.709-.58.911-.78.434-1.534.918-2.332 1.314-.61.302-.891.718-.793 1.401.076.519-.254 1.259.178 1.502.333.187.836-.446 1.289-.668.291-.143.574-.536.863-.391.36.18.105.652.168.989.005.026-.003.053.002.077.116.542-.286 1.491.225 1.557.642.083 1.32-.556 1.93-.974.35-.24.232-.655.236-1.003.013-.979-.004-1.958.011-2.936.01-.625.719-1.235 1.39-1.225.71.011 1.367.585 1.38 1.218.009.489.017.98 0 1.468-.018.523.17.565.583.329.842-.48 1.696-.937 2.551-1.393.958-.51 2.008.147 2.091 1.224.06.79-.235 1.232-.912 1.57-.865.433-1.686.955-2.524 1.442-.038.022-.057.078-.143.198l1.567.902c.561.324.844 1.386.516 1.935-.323.543-1.286.76-1.87.41-.833-.496-1.67-.987-2.488-1.506-.347-.22-.635-.24-.973.008-.392.286-.8.553-1.225.783-.617.336-.485.59.03.881.422.238.819.52 1.23.775.348.217.331.414-.01.617-.604.36-1.208.724-1.95 1.17.83.43 1.52.795 2.217 1.148.273.138.49-.06.706-.18.87-.483 1.728-.986 2.6-1.462.504-.275 1.357.053 1.677.614.294.519.108 1.5-.36 1.792-.411.256-.837.489-1.26.723-.372.208-.34.386.007.591.813.48 1.595 1.02 2.433 1.446.786.4.507 1.077.568 1.682.053.536-.334.673-.7.875-.588.327-1.106.342-1.69-.06-.67-.463-1.406-.825-2.111-1.236-.376-.22-.569-.15-.557.318.008.335-.032.674.006 1.004.082.704-.187 1.125-.812 1.475-.617.346-1.002-.003-1.466-.238-.35-.178-.418-.476-.414-.836.01-.953-.017-1.907.01-2.858.012-.468-.133-.782-.55-.997-.453-.232-.892-.496-1.326-.764-.428-.265-.654-.226-.627.349.019.411.018.825-.002 1.236-.012.242.13.573-.142.703-.247.12-.46-.152-.674-.274a23.647 23.647 0 01-1.17-.727c-.328-.212-.514-.186-.506.265.01.515.014 1.03 0 1.545-.012.413.171.666.521.858.827.456 1.642.93 2.457 1.406.526.307.8 1.431.493 1.97-.282.495-1.26.724-1.819.416-.533-.295-1.06-.602-1.752-.996" id="Fill-1" fill="#FEFEFE"/>
        <g id="Group-5">
          <mask id="mask-3" fill="#fff">
            <use xlink:href="#path-2"/>
          </mask>
          <path d="M162.15 67.522c-7.163 0-12.97-5.798-12.97-12.95 0-7.153 5.807-12.952 12.97-12.952 7.161 0 12.967 5.799 12.967 12.951 0 7.153-5.806 12.951-12.968 12.951m60.804-3.385c.046-.967.074-1.94.074-2.92C223.027 27.64 195.77.42 162.149.42s-60.878 27.22-60.878 60.798c0 .98.028 1.952.075 2.92C41.923 88.16 0 146.332 0 214.291c0 89.435 72.597 161.937 162.15 161.937 89.552 0 162.149-72.502 162.149-161.937 0-67.959-41.923-126.13-101.346-150.155" id="Fill-3" fill="#B5D8D2" mask="url(#mask-3)"/>
        </g>
        <path d="M48.133 163.264c-.058 2.265.254 4.488.763 6.668 2.343 10.029 13.13 13.409 20.97 6.65.845-.727 1.441-2.643 2.884-1.726 1.547.984 1.27 2.759.723 4.403-1.929 5.8-7.149 9.086-13.945 8.712-14.346-.79-23.274-9.795-23.521-24.516-.182-10.803 3.416-20.43 11.361-28.1 3.958-3.82 8.616-6.41 14.175-7.196 5.96-.843 10.849 1.686 13.493 7.094 1.57 3.212 2.204 6.649 1.883 10.18-.369 4.05-5.496 6.849-9.205 5.223-1.162-.51-1.206-1.425-1.213-2.432-.01-2.149.07-4.304-.718-6.368-1.176-3.082-3.383-4.046-6.44-2.738-2.474 1.058-4.278 2.92-5.826 5.052-4.146 5.707-5.048 12.325-5.384 19.094" id="Fill-6" fill="#FEFEFE"/>
        <path d="M211.077 145.47c-6.3-.231-12.315-.482-18.25-1.471-2.57-.427-3.527.406-3.783 2.912-1.048 10.24-2.218 20.468-3.384 30.696-.176 1.541.23 3.722-1.366 4.342-2.556.993-5.44 1.272-8.198.881-1.289-.182-.699-1.66-.589-2.531.921-7.309 1.955-14.605 2.865-21.915.546-4.402.902-8.828 1.401-13.236.217-1.913-.509-2.977-2.423-3.475-8.49-2.21-16.958-3.101-25.354.308-1.894.769-2.143.169-1.935-1.575.637-5.319.78-5.626 6.035-6.883 9.836-2.354 19.703-1.964 29.242 1.062 12.556 3.98 25.303 3.526 38.131 2.755 2.862-.172 5.715-.52 8.568-.826 1.565-.169 2.164.037 1.905 1.977-.434 3.255-2.04 4.676-5.232 5.296-5.937 1.151-11.909 1.543-17.633 1.683" id="Fill-8" fill="#FEFEFE"/>
        <path d="M287.994 144.249c-.172 3.3-.527 6.222-1.7 8.998-.727 1.718-1.65 2.253-3.177.883-.594-.533-1.218-1.054-1.894-1.472-3.016-1.863-5.068-4.102-3.772-8.093.279-.858.015-1.974-.222-2.912-.725-2.865-3.06-3.707-5.511-2.067-3.602 2.41-4.362 7.875-1.387 11.386 2.304 2.717 4.877 5.2 7.322 7.794 2.46 2.61 4.689 5.412 6.103 8.748 2.002 4.728 2.255 9.504-.89 13.814-3.126 4.287-7.682 5.098-12.616 4.496-.35-.043-.697-.127-1.044-.197-6.859-1.384-8.458-3.543-8.121-10.68.074-1.581.726-2.08 2.15-1.877 1.665.235 3.312.467 5.01.114 4.239-.882 6.18-4.42 4.536-8.5-1.134-2.816-3.175-4.95-5.384-6.909-1.864-1.653-3.889-3.123-5.702-4.827-4.31-4.051-4.86-9.41-1.595-14.347 4.54-6.86 13.454-9.49 20.92-6.175 4.878 2.167 7.108 6.058 6.974 11.823" id="Fill-10" fill="#FEFEFE"/>
        <path d="M116.65 155.025c.918 1.534-1.341 4.762 2.225 5.096 3.567.335 7.009-2.58 6.93-5.267-.081-2.744-3.014-4.671-6.778-4.545-3.591.12-2.044 2.744-2.376 4.716m1.397 15.957c-.7 3.324.013 6.555.506 9.734.416 2.68-.439 3.608-3.088 3.925-6.792.808-6.785.785-7.367-5.928-.736-8.495-1.29-16.988-1.037-25.517.053-1.772.13-3.55.335-5.31.587-5.038.608-5.113 5.758-5.543 4.09-.343 8.201-.666 12.277.283 8.88 2.068 12.87 11.413 8.112 19.164-.83 1.35-1.776 2.77-3.017 3.699-2.476 1.853-2.15 3.47-.498 5.722 2.58 3.517 5 7.144 8.146 10.203 1.274 1.239 1.094 1.884-.689 2.102-1.861.226-3.719.489-5.577.742-1.345.182-2.156-.683-2.973-1.505-3.14-3.162-6.158-6.43-8.93-9.92-.52-.654-.794-1.606-1.958-1.85" id="Fill-12" fill="#FEFEFE"/>
        <path d="M216.639 163.55c-2.036 2.212-4.14 4.365-6.085 6.656-1.445 1.702-2.39 1.72-3.467-.345-1.407-2.698-3.011-5.293-4.785-8.373-.957 1.873-.706 3.225-.797 4.505-.372 5.23-.779 10.46-1.014 15.696-.106 2.337-.99 3.277-3.404 3.299-6.465.06-6.393.15-5.874-6.403.758-9.567 1.473-19.138 2.044-28.717.163-2.733 1.321-2.98 3.74-2.837 5.137.306 8.755 2.346 10.437 7.356.14.413.43.776.653 1.16 1.642 2.825 1.891 2.84 3.968.239.944-1.182 2.102-2.254 2.78-3.573 2.209-4.29 5.955-4.444 10.02-4.087 1.743.153 2.273.979 2.12 2.633-.92 9.909-1.855 19.818-2.641 29.738-.204 2.564-1.243 3.734-3.802 3.534-.264-.02-.533.025-.8.039-4.593.248-4.71.128-4.17-4.448.62-5.258 1.252-10.515 1.88-15.772l-.803-.3" id="Fill-14" fill="#FEFEFE"/>
        <path d="M244.774 148.415l-.671.022c-.35 1.639-.743 3.27-1.036 4.92-.162.91-.142 1.883 1.12 2.009 1.336.133 1.432-.83 1.325-1.768-.198-1.733-.487-3.456-.738-5.183m9.01 34.996c-4.559.068-4.606.075-5.287-4.515a427.19 427.19 0 01-1.814-13.6c-.222-1.916-.95-2.877-3.022-2.944-2.077-.068-2.881.804-3.132 2.75-.666 5.16-1.524 10.292-2.146 15.455-.272 2.263-1.185 3.297-3.562 3.362-8.639.238-7.234.408-5.582-6.576 3.077-13.006 6.255-25.987 9.31-38.999.487-2.073 1.353-3.33 3.609-3.646 2.216-.309 4.417-.846 6.567-1.48 2.26-.665 3.056.213 3.373 2.366 1.384 9.406 2.874 18.796 4.319 28.193.776 5.052 1.54 10.107 2.304 15.162.638 4.223.494 4.386-3.858 4.471-.359.007-.718.001-1.078.001" id="Fill-16" fill="#FEFEFE"/>
        <path d="M103.499 159.799c.244 6.916.382 15.224 1.44 23.472.257 1.993-.258 2.977-2.361 2.676-.965-.138-1.932-.262-2.9-.38-2.433-.302-3.549-1.679-3.553-4.186-.007-5.236-.1-10.472-.176-15.707-.045-3.173-2.927-5.1-5.774-3.907-1.167.489-1.074 1.547-1.164 2.51-.56 5.937-1.373 11.833-2.643 17.658-.734 3.364-1.138 3.638-4.554 3.106-5.374-.837-5.408-.933-4.104-6.199 2.852-11.51 3.199-23.19 2.306-34.966-.316-4.165 2.625-6.991 6.828-6.872 1.74.05 1.652 1.286 1.703 2.464.195 4.419.497 8.838.522 13.257.015 2.58.997 3.438 3.492 3.484 2.71.05 3.032-1.42 3.048-3.572.023-3.25.248-6.497.265-9.745.01-1.93.64-2.872 2.676-3.215 5.659-.953 5.703-1.051 5.279 4.66-.35 4.691-.307 9.383-.33 15.462" id="Fill-18" fill="#FEFEFE"/>
        <path d="M157.895 185.999c-4.423-.03-8.223-1.786-11.827-4.104-.961-.619-1.309-1.384-.898-2.488.62-1.666 1.193-3.35 1.769-5.031.429-1.257.97-1.728 1.91-.357.825 1.202 1.875 2.151 3.28 2.676 3.762 1.405 7.298-1.045 7.176-4.992-.081-2.61-1.332-4.773-2.9-6.755-1.55-1.96-3.28-3.781-4.833-5.736-3.895-4.903-2.895-10.861 2.35-14.342 7.377-4.895 15.742-3.38 19.46 3.414 1.04 1.9.838 3.133-1.154 4.042-.244.111-.463.274-.692.415-3.639 2.246-3.639 2.247-5.937-1.386-.814-1.286-1.671-2.536-2.922-3.463-.898-.667-1.862-1.18-2.991-.598-1.304.672-1.648 1.872-1.44 3.18.568 3.548 2.395 6.493 4.903 9.006 2.683 2.69 4.973 5.628 6.541 9.068 4.11 9.017-1.678 17.563-11.795 17.45" id="Fill-20" fill="#FEFEFE"/>
        <path d="M100.557 120.038c-1.148 4.13-1.41 7.838-1.827 11.503-.277 2.424-1.29 2.866-3.362 1.852a40.547 40.547 0 00-2.719-1.189c-1.38-.556-1.865-1.478-1.563-2.948 1.248-6.079 2.444-12.167 3.644-18.254.263-1.338.82-2.35 2.386-2.433 1.956-.104 4.101-1.5 5.717.753.778 1.086 1.48 2.225 2.225 3.335 2.042 3.041 2.048 3.044 4.633.605 1.301-1.228 2.585-2.475 3.886-3.702.722-.681 1.496-1.234 2.546-1.402 3.283-.528 4.028.18 3.853 3.459-.344 6.458-.712 12.917-.84 19.38-.046 2.37-1 3.263-3.25 3.604-5.442.828-5.547.807-5.493-4.49.026-2.659.088-5.317.113-7.975.004-.51.129-1.167-.488-1.39-.608-.22-.951.366-1.311.731a137.829 137.829 0 00-3.16 3.285c-1.06 1.147-1.764.876-2.407-.422-.656-1.324-1.109-2.783-2.583-4.302" id="Fill-22" fill="#FEFEFE"/>
        <path d="M172.85 111.974c-.059.871-.248 1.928 1.085 2 1.534.083 2.672-.592 2.856-2.233.14-1.24-.441-2.177-1.743-2.29-1.756-.155-1.983 1.2-2.199 2.523m9.48 15.724c-3.207.766-4.82-1.768-6.56-4.118a29.097 29.097 0 00-1.882-2.304c-.844-.927-1.557-.85-1.94.416-.208.689-.361 1.394-.516 2.097-1.053 4.769-1.792 5.3-6.755 5.2-1.37-.026-1.82-.629-1.637-1.83.966-6.311 1.94-12.622 2.955-18.926.175-1.087 1.046-1.655 2.048-1.96 4.142-1.26 8.35-1.754 12.605-.696 2.446.607 4.701 1.607 5.255 4.446.532 2.726-1.163 6.272-3.705 7.907-2.927 1.884-2.927 1.884-.496 4.542 1.035 1.132 2.105 2.237 3.092 3.409.427.508 1.32 1.002.81 1.791-.377.582-1.18.194-1.796.162-.362-.02-.723-.066-1.477-.136" id="Fill-24" fill="#FEFEFE"/>
        <path d="M151.56 114.986c1.354-.373 2.16-1.307 2.136-2.828-.013-.798-.446-1.45-1.322-1.285-1.663.316-1.746 1.82-2.03 3.067-.167.73.28 1.16 1.215 1.046m-2.368 4.967c-.773 2.783-1.44 5.138-2.078 7.5-.375 1.388-.754 2.599-2.213.722-.213-.274-.501-.602-.81-.674-4.22-.982-3.145-3.739-2.364-6.525 1.001-3.576 1.909-7.18 2.73-10.801.416-1.835 1.448-2.715 3.284-2.883 2.855-.262 5.72-.488 8.562-.024 2.519.411 5.048.995 5.634 4.037.449 2.327-1.533 5.892-3.834 7.118-3.381 1.801-3.377 1.8-1.144 5.007a237.6 237.6 0 012.7 3.957c.839 1.258.44 1.85-1.03 2.166-4.193.897-4.59.727-6.21-3.192-.745-1.8-1.512-3.59-2.291-5.375-.098-.223-.34-.385-.936-1.033" id="Fill-26" fill="#FEFEFE"/>
        <path d="M136.365 127.336c-1.7 2.128-3.195 4.079-4.782 5.956-.882 1.042-2.185.632-3.329.611-7.663-.137-7.73-.153-6.91-7.578.563-5.08 1.382-10.134 2.006-15.209.215-1.751.952-2.667 2.867-2.818 4.24-.337 8.47-.801 12.698-1.262 1.96-.213 2.402.516 1.887 2.294-1.082 3.734-1.356 3.98-5.466 3.887-1.539-.035-3.077-.092-4.616-.091-1.467 0-2.12.908-2.205 2.189-.103 1.577 1.137 1.514 2.24 1.58 4.1.244 4.485.762 3.659 4.247-.334 1.409-1.217 1.86-2.48 1.975-1.262.114-2.533.133-3.79.274-1.332.148-1.849 1.056-1.79 2.24.06 1.189 1.05 1.262 1.98 1.328 2.57.184 5.183-.265 8.03.377" id="Fill-28" fill="#FEFEFE"/>
        <path d="M146.966 147.39c-.689 9.461-1.753 19.41-3.67 29.254-.165.853-.11 1.989-1.044 2.296-1.057.346-1.374-.896-2.023-1.438-3.969-3.312-5.265-6.917-3.372-12.22 2.065-5.786 1.378-12.101.75-18.194-.225-2.183.36-3.18 2.558-3.318.89-.056 1.764-.31 2.648-.46 4.128-.7 4.302-.55 4.153 4.08" id="Fill-30" fill="#FEFEFE"/>
        <path d="M216 110.022c-4.157 1.653-8.042 3.681-11.532 6.477-2.72 2.179-4.877 4.621-5.397 8.224-.125.87-.477 1.708-.723 2.562-1.08 3.739-3.861 4.756-7.072 2.593-.476-.32-.78-.732-.75-1.314.024-.442.017-.925.192-1.313 2.844-6.251.778-11.686-2.677-16.945-.537-.818-1.558-1.84-.727-2.859.646-.794 1.836-.296 2.793-.263 2.659.092 4.043 1.664 5.07 3.977 1.963 4.42 1.834 4.591 5.148 1.26 4.73-4.755 10.202-3.09 15.675-2.399" id="Fill-32" fill="#FEFEFE"/>
        <path d="M140.09 131.002c2.325.059 4.02 1.89 3.904 4.22-.124 2.525-2.446 4.766-4.952 4.778-2.306.013-4.1-1.816-4.04-4.118.07-2.69 2.425-4.949 5.087-4.88" id="Fill-34" fill="#FEFEFE"/>
        <path d="M162 68.08c-7.224 0-13.08-5.855-13.08-13.08s5.856-13.08 13.08-13.08 13.08 5.855 13.08 13.08-5.856 13.08-13.08 13.08M162 28c-14.911 0-27 12.088-27 27s12.089 27 27 27c14.912 0 27-12.088 27-27s-12.088-27-27-27" id="Fill-36" fill="#EE3D3D"/>
        <path d="M224.576 227.745c.27-.05.6.113.808-.128.268-.308.573-.661.592-1.055.02-.402-.328-.735-.561-1.068-.206-.295-.55-.176-.836-.176-.288 0-.64-.126-.847.146-.246.324-.553.685-.596 1.055-.046.388.378.697.606 1.034.208.306.55.14.834.192m.905 5.992c0 .817.002 1.535-.001 2.253-.002.426-.57 1.022-.959 1.01-.397-.011-.967-.602-.971-1.019-.007-.59-.008-1.18-.002-1.77.004-.326-.095-.432-.406-.235-.195.125-.408.22-.611.333-.452.25-1.029.144-1.258-.231-.233-.38-.026-1.047.408-1.295.476-.271.948-.55 1.435-.799.305-.155.445-.36.415-.7a6.321 6.321 0 01-.003-.836c.014-.328-.119-.321-.347-.172-.305.2-.62.385-.925.585-.284.184-.427.133-.425-.217.002-.361-.006-.722 0-1.082.005-.245-.052-.35-.31-.195-.299.179-.604.348-.912.51-.226.12-.267.313-.265.538.003.59.006 1.18-.003 1.77-.006.435-.592 1.017-.982.992-.391-.025-.8-.514-.807-.97-.004-.245-.01-.49 0-.737.017-.37-.127-.376-.41-.211-.528.31-1.07.6-1.607.896-.338.186-1.015.096-1.327-.23-.31-.324-.167-.742-.107-1.12.027-.174.228-.225.372-.304.54-.293 1.084-.578 1.62-.877.12-.068.334-.094.317-.265-.015-.154-.222-.174-.35-.244a4.375 4.375 0 00-.58-.284c-.344-.128-.478-.35-.462-.716.015-.342.029-.619.4-.814.382-.2.685-.313 1.088-.026.456.326.98.56 1.454.862.26.166.473.17.727 0 .26-.176.544-.317.819-.472.209-.117.208-.238.004-.356-.33-.19-.658-.387-.996-.566-.298-.157-.257-.291 0-.442.285-.17.556-.364.851-.513.383-.193.244-.271-.02-.471-.737-.562-1.428-.647-2.171-.012-.26.222-.606.342-.896.534-.252.17-.477.166-.74.023-.28-.154-.55-.26-.536-.67.015-.41 0-.774.483-.96.321-.123.608-.33 1-.55-.631-.345-1.2-.658-1.772-.968-.603-.324-.888-1.018-.6-1.473.265-.418 1.027-.518 1.585-.204.492.275.986.547 1.471.835.271.16.353.075.344-.206-.008-.278-.002-.557 0-.835.002-.473.396-.96.78-.968.413-.01.972.55.973.983.002.557.018 1.116-.012 1.672-.02.378.11.629.462.777.348.148.721.597.989.46.294-.151.09-.685.103-1.05.024-.664.03-.677.615-.365.265.14.529.278.79.424.2.11.315.086.311-.167-.003-.377-.007-.754-.001-1.131.004-.24-.159-.34-.339-.44-.536-.298-1.074-.595-1.607-.9-.337-.19-.506-.851-.317-1.205.183-.344.799-.513 1.164-.321 1.123.592 1.123.592 1.123-.652v-.737c.003-.672.182-.934.814-1.186.368-.148 1.108.4 1.116.843.012.639.013 1.28.001 1.918-.006.337.099.423.403.242.228-.137.466-.255.698-.385.278-.156.523-.294.862-.052.335.239.574.459.531.908-.026.283-.14.451-.38.58-.51.275-1.005.584-1.528.836-.4.192-.583.457-.52.892.05.33-.165.8.118.956.218.119.548-.284.844-.426.191-.09.376-.34.566-.249.235.115.068.415.11.63.003.016-.003.033 0 .05.077.344-.187.948.149.99.42.052.863-.354 1.263-.62.23-.154.152-.417.156-.638.008-.623-.004-1.247.007-1.87.006-.397.47-.785.91-.778.465.006.896.372.905.775.005.312.01.623 0 .934-.012.333.11.36.381.21a62.67 62.67 0 011.672-.887c.628-.325 1.315.093 1.37.778.04.504-.154.784-.598 1-.567.276-1.105.608-1.653.918-.026.014-.038.05-.094.126.345.193.686.382 1.027.574.367.206.553.881.338 1.23-.212.347-.843.483-1.226.261-.545-.315-1.094-.627-1.63-.958-.227-.14-.416-.152-.638.005a7.296 7.296 0 01-.802.5c-.404.213-.318.375.02.56.276.15.537.331.806.494.227.136.216.263-.006.392-.397.228-.793.46-1.279.744.544.274.997.507 1.453.73.18.088.32-.038.462-.115.57-.307 1.133-.626 1.705-.93.33-.174.888.034 1.097.391.194.33.071.955-.234 1.14-.27.163-.55.312-.826.461-.244.131-.224.246.004.376.532.306 1.045.648 1.594.92.515.255.333.687.372 1.07.035.341-.218.428-.457.557-.387.209-.726.219-1.109-.038-.438-.294-.921-.525-1.382-.787-.247-.14-.373-.095-.366.203.006.213-.02.429.004.64.054.447-.122.715-.532.938-.404.22-.656-.002-.96-.152-.23-.113-.273-.303-.271-.531.005-.607-.011-1.213.006-1.82.008-.297-.087-.498-.36-.634a12.413 12.413 0 01-.869-.487c-.28-.168-.428-.143-.41.222.012.262.01.526-.002.787-.008.154.084.365-.092.448-.163.076-.303-.097-.443-.175-.26-.144-.513-.304-.766-.462-.216-.136-.337-.12-.332.168.007.328.01.656 0 .983-.007.263.113.424.342.547.542.29 1.076.592 1.61.894.344.195.524.91.322 1.254-.184.315-.826.46-1.191.265-.35-.188-.695-.384-1.148-.634" id="Fill-38" fill="#FEFEFE"/>
        <path d="M296.577 270.745c.27-.051.599.113.807-.128.268-.309.573-.661.593-1.056.02-.401-.33-.734-.562-1.068-.206-.294-.55-.176-.835-.176-.288.001-.64-.125-.847.147-.247.324-.553.684-.597 1.055-.046.388.379.697.607 1.034.207.306.55.14.834.192m.904 5.992c0 .817.002 1.534 0 2.252-.003.426-.572 1.022-.96 1.011-.396-.012-.966-.603-.971-1.02-.006-.59-.008-1.18-.002-1.77.004-.326-.095-.432-.405-.234-.196.124-.409.22-.612.332-.453.25-1.028.145-1.259-.231-.232-.38-.025-1.046.41-1.295.475-.27.946-.55 1.434-.799.305-.155.445-.358.414-.7a6.32 6.32 0 01-.002-.836c.014-.328-.119-.32-.347-.172-.305.2-.62.385-.925.585-.284.185-.427.133-.425-.217.003-.36-.006-.721 0-1.082.005-.244-.052-.35-.31-.195-.298.18-.603.348-.912.51-.226.12-.266.313-.265.54.003.59.006 1.18-.003 1.77-.006.433-.592 1.015-.982.99-.391-.025-.8-.513-.807-.969-.004-.245-.01-.491 0-.737.016-.37-.128-.377-.41-.212-.529.31-1.07.601-1.607.897-.338.185-1.014.095-1.327-.23-.31-.325-.167-.742-.107-1.121.027-.173.228-.225.372-.304.54-.293 1.084-.578 1.62-.876.12-.068.334-.094.317-.266-.015-.154-.222-.173-.35-.243a4.375 4.375 0 00-.58-.284c-.344-.128-.478-.35-.462-.716.015-.342.029-.619.4-.815.382-.2.685-.313 1.088-.025.456.326.98.559 1.454.862.261.167.472.17.727 0 .26-.176.544-.316.819-.472.21-.118.208-.237.003-.356-.33-.19-.657-.387-.995-.566-.298-.157-.257-.291 0-.443.285-.17.556-.364.851-.513.383-.193.244-.27-.02-.47-.737-.561-1.428-.647-2.171-.012-.26.221-.606.342-.896.534-.252.169-.477.166-.74.023-.28-.154-.55-.26-.537-.671.015-.41 0-.773.484-.96.321-.123.608-.329 1-.55-.632-.344-1.2-.658-1.772-.967-.603-.324-.888-1.019-.6-1.473.265-.418 1.027-.518 1.585-.205.492.276.986.548 1.471.835.27.16.353.076.345-.204-.01-.279-.003-.558-.001-.837.002-.472.396-.959.78-.967.414-.01.972.55.974.984.001.556.016 1.115-.013 1.67-.02.38.11.63.462.778.348.148.722.598.989.46.294-.15.09-.685.103-1.05.024-.664.03-.677.615-.365.264.14.53.279.79.423.199.11.314.087.312-.166-.003-.377-.007-.754-.002-1.132.003-.239-.16-.34-.339-.44-.536-.297-1.073-.594-1.607-.898-.337-.192-.506-.852-.317-1.206.183-.344.799-.514 1.164-.321 1.123.591 1.123.591 1.123-.652v-.737c.002-.672.182-.934.814-1.186.368-.148 1.108.4 1.116.844.012.639.013 1.278 0 1.917-.005.337.1.423.405.242.227-.137.465-.256.697-.385.278-.156.524-.294.863-.052.334.239.573.458.53.908-.027.283-.14.45-.379.58-.511.276-1.005.584-1.529.835-.399.193-.583.458-.519.893.05.329-.166.801.117.956.218.118.548-.284.844-.426.191-.09.376-.34.565-.249.236.114.07.415.111.63.003.016-.002.033 0 .05.077.343-.187.947.148.99.42.052.865-.354 1.265-.62.23-.153.152-.417.155-.639.009-.622-.003-1.245.007-1.868.006-.398.47-.785.91-.78.466.007.896.373.904.776.007.311.011.623.001.934-.012.333.111.36.382.21.55-.306 1.11-.597 1.671-.887.629-.325 1.316.093 1.37.779.04.503-.154.784-.598 1-.566.275-1.104.606-1.653.917-.025.014-.038.05-.094.125l1.026.575c.368.206.554.88.34 1.231-.213.346-.844.482-1.227.26-.546-.315-1.093-.627-1.629-.958-.228-.14-.416-.152-.638.005a7.181 7.181 0 01-.803.5c-.404.212-.317.374.02.56.277.15.536.33.806.493.228.137.217.264-.006.392-.397.229-.792.461-1.278.744.544.275.996.507 1.452.731.18.088.321-.038.463-.115.57-.307 1.132-.627 1.704-.93.33-.174.889.033 1.098.39.193.33.071.955-.236 1.141-.269.163-.548.311-.825.46-.244.132-.223.246.005.377.532.305 1.045.649 1.594.92.515.254.332.686.371 1.07.036.341-.218.428-.458.557-.386.208-.724.218-1.107-.039-.439-.294-.922-.524-1.384-.786-.245-.14-.371-.096-.364.203.005.213-.022.428.004.639.054.447-.123.716-.532.938-.404.22-.657-.002-.96-.152-.23-.113-.275-.302-.272-.53.006-.607-.01-1.214.007-1.82.007-.297-.087-.497-.361-.635a12.415 12.415 0 01-.868-.487c-.281-.167-.429-.142-.411.223.012.262.011.525-.002.787-.008.154.085.365-.093.447-.161.077-.302-.096-.441-.174-.261-.144-.514-.304-.766-.462-.216-.136-.338-.12-.332.168.005.327.01.656-.001.983-.007.262.113.424.342.546.541.29 1.076.592 1.61.895.345.195.523.91.323 1.253-.185.315-.826.461-1.192.265-.35-.187-.695-.383-1.148-.633" id="Fill-40" fill="#FEFEFE"/>
        <path d="M227.577 323.745c.27-.051.599.112.807-.127.268-.31.573-.663.593-1.057.02-.401-.329-.734-.562-1.068-.205-.294-.549-.176-.835-.175-.288 0-.64-.127-.847.147-.247.324-.553.683-.596 1.054-.047.389.378.697.606 1.034.207.306.55.14.834.192m.904 5.992c0 .818.002 1.534 0 2.252-.002.426-.572 1.022-.96 1.011-.396-.012-.966-.602-.971-1.019-.007-.59-.008-1.18-.002-1.77.004-.327-.094-.433-.405-.235-.195.124-.409.22-.612.333-.452.25-1.028.144-1.259-.232-.232-.38-.025-1.046.41-1.294.475-.272.946-.551 1.434-.799.305-.155.445-.36.414-.701a6.31 6.31 0 01-.002-.835c.013-.329-.118-.322-.347-.173-.306.2-.62.386-.925.585-.283.185-.427.134-.424-.217.002-.36-.008-.721 0-1.082.004-.244-.054-.35-.311-.194-.298.178-.603.347-.911.51-.226.12-.267.312-.266.538.003.59.005 1.18-.003 1.77-.006.434-.592 1.017-.982.991-.391-.025-.799-.513-.807-.969-.004-.245-.01-.491 0-.737.017-.37-.128-.377-.41-.212-.529.31-1.069.601-1.607.897-.337.185-1.014.095-1.327-.231-.31-.324-.167-.742-.108-1.12.028-.172.23-.225.374-.304.539-.293 1.083-.578 1.619-.876.121-.068.335-.094.317-.265-.015-.155-.222-.174-.349-.244a4.337 4.337 0 00-.581-.284c-.344-.129-.478-.35-.462-.717.015-.34.03-.618.4-.813.382-.201.686-.314 1.088-.026.456.326.98.559 1.454.862.261.166.472.17.727 0 .26-.176.544-.317.819-.472.21-.118.209-.237.003-.356-.33-.19-.657-.388-.994-.566-.298-.157-.258-.291-.002-.443.286-.169.557-.364.853-.513.382-.193.244-.27-.02-.47-.738-.561-1.429-.647-2.173-.012-.26.221-.605.342-.895.535-.252.168-.476.165-.74.022-.28-.154-.551-.26-.536-.671.015-.41 0-.773.484-.96.32-.123.607-.329 1-.55-.633-.345-1.201-.658-1.774-.966-.602-.325-.887-1.02-.599-1.474.265-.418 1.027-.518 1.585-.205.492.276.986.549 1.471.836.271.16.353.076.345-.205-.009-.279-.003-.558-.001-.836.002-.472.396-.96.78-.968.414-.01.971.55.973.983.002.557.017 1.115-.012 1.672-.02.379.11.629.462.778.348.147.722.597.99.46.293-.152.089-.687.102-1.051.024-.663.03-.677.616-.365.263.14.528.279.79.423.198.11.313.087.31-.167a41.833 41.833 0 010-1.13c.002-.24-.16-.341-.34-.44a154.73 154.73 0 01-1.607-.899c-.337-.192-.505-.852-.317-1.207.183-.343.799-.513 1.164-.32 1.124.592 1.124.592 1.124-.651v-.738c.001-.671.182-.934.813-1.187.368-.147 1.108.402 1.116.845.012.639.013 1.278 0 1.918-.005.336.1.423.405.24.227-.135.465-.255.697-.384.278-.156.524-.294.862-.051.335.238.574.457.532.907-.028.283-.141.45-.38.58-.511.276-1.006.584-1.528.835-.4.193-.584.458-.52.893.05.33-.166.801.116.955.22.12.55-.283.845-.425.19-.09.377-.34.566-.248.235.114.069.414.11.629.003.016-.003.033.001.049.076.345-.187.948.147.99.42.053.865-.353 1.265-.62.23-.152.152-.416.155-.638.009-.622-.003-1.245.007-1.868.006-.398.47-.785.91-.78.466.008.896.373.904.775.007.312.011.624.001.935-.012.333.111.36.382.21.55-.307 1.11-.597 1.67-.888.629-.324 1.317.094 1.37.78.04.504-.153.784-.597 1-.566.275-1.104.606-1.653.917-.025.013-.038.049-.093.126l1.025.573c.368.206.554.882.34 1.232-.213.346-.844.482-1.227.26-.546-.316-1.093-.627-1.63-.958-.227-.14-.415-.152-.637.006a7.364 7.364 0 01-.803.498c-.403.214-.317.375.02.56.277.152.537.332.806.494.228.137.217.263-.006.392-.397.229-.792.461-1.278.744.544.275.996.507 1.452.73.18.089.321-.037.463-.114.57-.306 1.132-.627 1.704-.93.33-.174.888.033 1.098.391.193.33.071.954-.236 1.14-.269.163-.548.311-.826.46-.244.133-.222.246.006.377.532.305 1.044.648 1.594.92.515.254.331.686.371 1.07.036.341-.218.428-.458.557-.386.208-.724.218-1.107-.039-.44-.294-.922-.524-1.384-.786-.245-.14-.371-.095-.364.203.005.213-.022.428.004.639.054.448-.123.716-.532.939-.404.22-.657-.003-.96-.152-.23-.113-.275-.303-.272-.532.006-.606-.011-1.213.006-1.82.009-.297-.087-.496-.36-.633a12.88 12.88 0 01-.868-.487c-.281-.168-.429-.143-.411.222.012.262.01.525-.002.787-.008.154.085.365-.092.448-.162.076-.302-.097-.442-.175a15.331 15.331 0 01-.766-.462c-.216-.135-.338-.12-.332.169.005.327.009.655 0 .983-.008.261.112.423.341.545.541.29 1.076.592 1.61.895.345.196.523.91.323 1.254-.185.314-.826.46-1.192.264-.35-.187-.695-.383-1.148-.633" id="Fill-42" fill="#FEFEFE"/>
        <path d="M90.576 329.745c.27-.051.6.112.808-.127.268-.31.573-.662.592-1.057.02-.401-.328-.734-.561-1.068-.205-.294-.55-.176-.836-.175-.288 0-.64-.127-.847.147-.246.324-.553.683-.596 1.054-.046.389.378.697.606 1.034.208.306.55.14.834.192m.905 5.992c0 .818.002 1.534-.001 2.252-.002.426-.57 1.022-.959 1.011-.397-.012-.967-.602-.971-1.019-.007-.59-.008-1.18-.002-1.77.004-.327-.095-.433-.406-.235-.195.124-.408.22-.611.333-.452.25-1.029.144-1.258-.232-.233-.38-.026-1.046.408-1.294.476-.272.948-.551 1.435-.799.305-.155.445-.36.415-.701a6.31 6.31 0 01-.003-.835c.014-.329-.119-.322-.347-.173-.305.2-.62.386-.925.585-.284.185-.427.134-.425-.217.002-.36-.006-.721 0-1.082.005-.244-.052-.35-.31-.194-.299.178-.604.347-.912.51-.226.12-.267.312-.265.538.003.59.006 1.18-.003 1.77-.006.434-.592 1.017-.982.991-.391-.025-.8-.513-.807-.969-.004-.245-.01-.491 0-.737.017-.37-.127-.377-.41-.212-.528.31-1.07.601-1.607.897-.338.185-1.015.095-1.327-.231-.31-.324-.167-.742-.107-1.12.027-.172.228-.225.372-.304.54-.293 1.084-.578 1.62-.876.12-.068.334-.094.317-.265-.015-.155-.222-.174-.35-.244a4.282 4.282 0 00-.58-.284c-.344-.129-.478-.35-.462-.717.015-.34.029-.618.4-.813.382-.201.685-.314 1.088-.026.456.326.98.559 1.454.862.26.166.473.17.727 0 .26-.176.544-.317.819-.472.209-.118.208-.237.004-.355-.33-.192-.658-.389-.996-.567-.298-.157-.257-.291 0-.443.285-.169.556-.364.851-.513.383-.193.244-.27-.02-.47-.737-.561-1.428-.647-2.171-.012-.26.221-.606.342-.896.535-.252.168-.477.165-.74.022-.28-.154-.55-.26-.536-.67.015-.41 0-.774.483-.96.321-.124.608-.33 1-.55-.631-.346-1.2-.659-1.772-.967-.603-.325-.888-1.019-.6-1.474.265-.418 1.027-.518 1.585-.205.492.276.986.549 1.471.836.271.16.353.076.344-.205-.008-.279-.002-.558 0-.836.002-.472.396-.96.78-.968.413-.01.972.55.973.983.002.557.018 1.115-.012 1.672-.02.379.11.629.462.778.348.147.721.597.989.46.294-.152.09-.687.103-1.051.024-.663.03-.677.615-.365.265.14.529.279.79.423.2.11.315.087.311-.167-.003-.376-.007-.753-.001-1.13.004-.24-.159-.341-.338-.44-.537-.298-1.075-.596-1.608-.899-.337-.192-.506-.852-.317-1.207.183-.343.799-.513 1.164-.32 1.123.592 1.123.592 1.123-.651v-.738c.003-.671.182-.934.814-1.187.368-.147 1.108.402 1.116.845.012.639.013 1.278.001 1.918-.006.336.099.423.403.24.228-.135.466-.255.698-.384.278-.156.523-.294.862-.051.335.238.574.457.531.907-.026.283-.14.45-.38.58-.51.276-1.005.584-1.528.835-.4.193-.583.458-.52.893.05.33-.165.801.118.955.218.12.548-.283.844-.425.191-.09.377-.34.566-.248.235.114.068.414.11.629.003.016-.003.033 0 .049.077.345-.187.948.149.99.42.053.863-.353 1.263-.62.23-.152.152-.416.156-.638.008-.622-.004-1.245.007-1.868.006-.398.47-.785.91-.78.465.008.896.373.905.775.005.312.01.624 0 .935-.012.333.11.36.381.21a65.026 65.026 0 011.672-.888c.627-.324 1.315.094 1.37.78.04.504-.154.784-.598 1-.567.275-1.105.606-1.653.917-.026.013-.038.049-.094.126l1.027.573c.367.206.553.882.338 1.232-.212.346-.843.482-1.226.26-.545-.316-1.094-.627-1.63-.958-.227-.14-.416-.152-.638.006a7.29 7.29 0 01-.802.498c-.404.214-.318.375.02.56.276.152.537.332.806.494.227.137.216.263-.006.392-.397.229-.793.461-1.279.744.544.275.997.507 1.453.73.18.089.32-.037.462-.113.57-.307 1.133-.628 1.705-.93.33-.175.888.033 1.097.39.194.33.071.954-.234 1.14-.27.163-.55.311-.826.46-.244.133-.224.246.004.377.533.305 1.045.648 1.594.92.515.254.333.686.372 1.07.035.341-.218.428-.457.557-.387.208-.726.218-1.109-.039-.438-.294-.921-.524-1.382-.786-.247-.14-.373-.095-.366.203.006.213-.02.428.004.639.054.448-.122.716-.532.939-.404.22-.656-.003-.96-.152-.23-.113-.273-.303-.271-.532.005-.606-.011-1.213.006-1.82.008-.297-.087-.496-.36-.633a13.075 13.075 0 01-.869-.487c-.28-.168-.428-.143-.41.222.012.262.01.525-.002.787-.008.154.084.365-.092.448-.163.076-.303-.097-.443-.175-.26-.144-.513-.303-.766-.462-.216-.135-.337-.12-.332.169.007.327.01.655 0 .983-.007.261.113.423.342.545.542.29 1.076.592 1.61.895.344.196.524.91.322 1.254-.184.314-.826.46-1.191.264-.35-.187-.695-.383-1.148-.633" id="Fill-44" fill="#FEFEFE"/>
        <path d="M34.577 268.745c.27-.051.599.112.807-.128.268-.309.573-.662.593-1.056.02-.401-.329-.734-.562-1.068-.205-.294-.549-.176-.835-.175-.288 0-.64-.127-.847.147-.247.324-.553.683-.596 1.054-.047.388.378.697.606 1.034.207.306.55.14.834.192m.904 5.992c0 .818.002 1.534 0 2.252-.002.426-.572 1.022-.96 1.011-.396-.012-.966-.602-.971-1.019-.006-.59-.008-1.18-.002-1.77.004-.327-.094-.433-.405-.235-.195.124-.409.22-.612.333-.452.25-1.028.144-1.259-.232-.232-.38-.025-1.046.41-1.295.475-.27.946-.55 1.434-.798.305-.155.445-.36.414-.701a6.31 6.31 0 01-.002-.835c.014-.329-.118-.322-.347-.173-.305.2-.62.386-.925.585-.283.185-.427.134-.424-.217.002-.36-.007-.721 0-1.082.004-.244-.053-.35-.311-.194-.298.178-.603.347-.911.51-.226.12-.267.312-.266.538.003.59.006 1.18-.003 1.77-.006.434-.592 1.016-.982.991-.391-.025-.799-.513-.807-.969-.004-.245-.01-.491 0-.737.017-.37-.128-.377-.41-.212-.529.31-1.069.601-1.607.897-.337.185-1.014.095-1.327-.231-.31-.324-.166-.742-.108-1.12.029-.172.23-.225.374-.304.54-.293 1.083-.578 1.619-.876.121-.068.335-.094.317-.265-.015-.155-.222-.174-.349-.245a4.532 4.532 0 00-.581-.283c-.344-.129-.478-.35-.462-.717.015-.34.03-.618.4-.813.382-.201.686-.314 1.089-.026.455.326.979.559 1.453.862.261.166.472.17.727 0 .26-.176.544-.317.819-.472.21-.118.209-.237.003-.356-.33-.19-.657-.388-.994-.566-.298-.157-.258-.291-.002-.443.286-.169.557-.364.853-.513.382-.193.244-.27-.02-.47-.738-.561-1.43-.647-2.173-.012-.258.221-.605.342-.895.534-.252.169-.476.166-.74.023-.28-.154-.551-.26-.536-.671.014-.41 0-.773.484-.96.32-.123.607-.329 1-.55-.633-.345-1.201-.658-1.773-.966-.603-.325-.888-1.02-.6-1.474.265-.418 1.027-.518 1.585-.205.492.276.986.549 1.471.835.271.16.353.077.345-.204-.009-.279-.003-.558-.001-.836.002-.473.396-.96.78-.968.414-.01.972.55.974.983.001.557.016 1.115-.013 1.672-.02.379.11.629.462.778.348.147.722.597.99.46.293-.152.09-.687.102-1.051.024-.663.03-.677.616-.365.263.14.528.279.79.423.198.11.313.087.31-.167a41.832 41.832 0 010-1.13c.002-.24-.16-.341-.34-.44a163.29 163.29 0 01-1.607-.899c-.337-.192-.506-.852-.317-1.207.183-.343.799-.513 1.164-.32 1.124.591 1.124.591 1.124-.651v-.738c.001-.671.182-.934.813-1.187.368-.147 1.108.402 1.116.845.013.639.013 1.278 0 1.917-.005.337.1.424.405.242.227-.136.465-.256.697-.385.278-.156.524-.294.862-.051.335.238.574.457.532.907-.028.283-.141.45-.38.58-.511.276-1.006.584-1.528.835-.4.193-.584.458-.52.893.05.33-.166.801.116.955.22.12.55-.283.845-.425.19-.09.377-.34.566-.248.235.114.069.414.11.629.003.016-.002.033.001.049.076.345-.187.948.147.99.42.053.865-.353 1.265-.62.23-.152.152-.416.155-.638.009-.622-.003-1.245.007-1.868.006-.398.47-.785.91-.78.466.008.896.373.904.775.007.312.011.624.001.935-.012.333.111.36.382.21.55-.307 1.11-.597 1.671-.888.629-.324 1.316.094 1.37.78.04.503-.154.784-.598 1-.566.275-1.104.606-1.653.917-.025.013-.038.049-.093.126l1.025.573c.368.206.554.882.34 1.232-.213.346-.844.482-1.227.26-.546-.316-1.093-.627-1.63-.958-.227-.14-.415-.152-.637.006a7.364 7.364 0 01-.803.498c-.403.214-.317.375.02.56.277.152.537.332.806.494.228.137.217.263-.006.392-.397.229-.792.461-1.278.744.544.275.996.507 1.452.73.18.089.321-.037.463-.114.57-.306 1.132-.627 1.704-.93.33-.174.888.033 1.098.39.193.33.071.955-.236 1.141-.269.163-.548.311-.826.46-.243.133-.222.246.006.377.532.305 1.045.648 1.594.92.515.254.331.686.371 1.07.036.341-.218.428-.458.557-.386.208-.724.218-1.107-.039-.439-.294-.922-.524-1.384-.786-.245-.14-.371-.096-.364.203.005.213-.022.428.004.639.054.448-.123.716-.532.939-.404.22-.657-.003-.96-.152-.23-.114-.275-.303-.272-.532.006-.606-.011-1.213.006-1.82.009-.297-.087-.496-.36-.633a12.88 12.88 0 01-.868-.487c-.281-.168-.429-.143-.411.222.012.262.011.525-.002.787-.008.154.085.365-.092.447-.162.077-.302-.096-.442-.174a15.332 15.332 0 01-.766-.462c-.216-.136-.338-.12-.332.169.005.327.01.655 0 .983-.008.261.112.423.341.545.541.29 1.076.592 1.61.895.345.196.523.91.323 1.254-.185.314-.826.46-1.192.264-.35-.187-.695-.383-1.148-.633" id="Fill-46" fill="#FEFEFE"/>
        <path d="M96.577 208.745c.27-.05.599.113.807-.128.268-.308.572-.661.593-1.055.02-.402-.329-.735-.562-1.068-.205-.295-.549-.176-.835-.176-.289 0-.64-.126-.847.146-.247.324-.553.685-.596 1.055-.047.388.378.697.606 1.034.207.306.55.14.834.192m.904 5.992c0 .817.002 1.535 0 2.253-.002.426-.572 1.022-.96 1.01-.396-.011-.966-.602-.971-1.019a78.34 78.34 0 01-.002-1.77c.004-.326-.094-.432-.405-.235-.195.125-.41.22-.612.333-.452.25-1.028.144-1.259-.231-.232-.38-.025-1.047.41-1.295.475-.271.946-.55 1.434-.799.305-.155.445-.36.414-.7a6.321 6.321 0 01-.002-.836c.013-.328-.12-.321-.347-.172-.306.2-.62.385-.925.585-.283.184-.427.133-.424-.217.002-.361-.008-.722 0-1.082.003-.245-.054-.35-.311-.195-.298.179-.604.348-.911.51-.226.12-.267.313-.266.538.003.59.005 1.18-.003 1.77-.006.435-.592 1.017-.982.992-.391-.025-.799-.514-.807-.97-.004-.245-.01-.49 0-.737.017-.37-.128-.376-.41-.211-.529.31-1.07.6-1.607.896-.337.186-1.014.096-1.327-.23-.31-.324-.167-.742-.108-1.12.028-.174.23-.225.374-.304.539-.293 1.083-.578 1.619-.877.121-.068.334-.094.317-.265-.015-.154-.222-.174-.349-.244a4.433 4.433 0 00-.58-.284c-.345-.128-.479-.35-.463-.716.015-.342.03-.619.4-.814.382-.2.686-.313 1.088-.026.456.326.98.56 1.454.862.261.166.472.17.727 0 .26-.176.544-.317.819-.472.21-.117.209-.238.003-.356-.33-.19-.657-.387-.994-.566-.298-.157-.258-.291-.002-.442.286-.17.557-.364.853-.513.382-.193.244-.271-.02-.471-.738-.562-1.429-.647-2.173-.012-.26.222-.605.342-.895.534-.252.17-.476.166-.74.023-.28-.154-.551-.26-.536-.67.015-.41 0-.774.484-.96.32-.123.607-.33 1-.55-.633-.345-1.201-.658-1.774-.968-.602-.324-.887-1.018-.599-1.473.264-.418 1.027-.518 1.585-.204.492.275.986.547 1.471.835.271.16.353.075.345-.206-.009-.278-.003-.557-.001-.835.002-.473.396-.96.78-.968.414-.01.971.55.973.983.002.557.017 1.116-.012 1.672-.02.378.11.629.462.777.348.148.722.597.988.46.295-.151.09-.685.104-1.05.024-.664.03-.677.616-.365.263.14.528.278.79.424.198.11.313.086.31-.167-.003-.377-.007-.754 0-1.131.002-.24-.16-.34-.34-.44-.537-.298-1.073-.595-1.607-.9-.337-.19-.505-.851-.317-1.205.183-.344.799-.513 1.164-.321 1.124.592 1.124.592 1.124-.652v-.737c.001-.672.182-.934.813-1.186.368-.148 1.108.4 1.116.843.012.639.013 1.28 0 1.918-.005.337.1.423.405.242.227-.137.465-.255.697-.385.278-.156.524-.294.862-.052.335.239.574.459.532.908-.028.283-.141.451-.38.58-.511.275-1.006.584-1.528.836-.4.192-.584.457-.52.892.05.33-.166.8.116.956.22.119.55-.284.845-.425.19-.091.377-.341.566-.25.235.115.069.415.11.63.003.016-.003.033.001.05.076.344-.187.948.147.99.42.052.865-.354 1.265-.62.23-.154.152-.417.155-.638.009-.623-.003-1.247.007-1.87.006-.397.47-.785.91-.778.466.006.896.372.904.775.007.312.011.623.001.934-.012.333.111.36.382.21.55-.307 1.11-.597 1.67-.887.629-.325 1.317.093 1.37.778.04.504-.153.784-.597 1-.566.276-1.104.608-1.653.918-.025.014-.038.05-.093.126.345.193.686.382 1.025.574.368.206.554.881.34 1.23-.213.347-.844.483-1.227.261-.546-.315-1.093-.627-1.63-.958-.227-.14-.415-.152-.637.005a7.37 7.37 0 01-.803.5c-.403.213-.317.375.02.56.277.15.537.331.806.494.228.136.217.263-.006.392-.397.228-.792.46-1.278.744.544.274.996.507 1.452.73.18.088.321-.038.463-.115.57-.307 1.132-.626 1.704-.93.329-.174.888.034 1.098.391.193.33.071.955-.236 1.14-.269.163-.548.312-.826.461-.244.131-.222.246.005.376.533.306 1.045.648 1.595.92.515.255.331.687.371 1.07.035.341-.218.428-.458.557-.386.209-.724.219-1.107-.038-.44-.294-.922-.525-1.384-.787-.245-.14-.371-.095-.364.203.005.213-.022.429.004.64.054.447-.123.715-.532.938-.404.22-.657-.002-.96-.152-.23-.113-.275-.303-.272-.531.006-.607-.011-1.213.006-1.82.009-.297-.087-.498-.36-.634a12.066 12.066 0 01-.868-.487c-.281-.168-.429-.143-.411.222.011.262.01.526-.002.787-.008.154.085.365-.092.448-.162.076-.302-.097-.442-.175-.261-.144-.515-.304-.767-.462-.215-.136-.337-.12-.331.168.005.328.009.656 0 .983-.008.263.112.424.341.547.541.29 1.076.592 1.61.894.345.195.523.91.322 1.254-.184.315-.825.46-1.19.265-.35-.188-.696-.384-1.149-.634" id="Fill-48" fill="#FEFEFE"/>
        <path d="M231.37 158.053a5.738 5.738 0 00-3.354-2.878 5.729 5.729 0 00-4.403.343 5.744 5.744 0 00-2.871 3.364l-.424 1.303a15.11 15.11 0 01-9.308 9.585v-14.287c0-3.19-2.588-5.784-5.77-5.784-1.921 0-3.621.949-4.67 2.4l-2.665-5.752a5.77 5.77 0 00-7.664-2.81 5.74 5.74 0 00-2.988 3.26 5.758 5.758 0 00.186 4.423l4.36 9.411a14.865 14.865 0 007.672 7.41v24.977a13.251 13.251 0 01-7.586-6.945l-.218-.476a5.772 5.772 0 00-7.651-2.845c-2.892 1.331-4.164 4.772-2.837 7.67l1.157 2.528c2.978 6.504 9.027 11.013 15.944 12.131a3.307 3.307 0 01-2.136.782h-2.322c-11.482 0-20.822 9.364-20.822 20.874V229h11.54v-2.263c0-5.131 4.163-9.306 9.282-9.306h2.322c8.197 0 14.866-6.685 14.866-14.903v-20.792c9.397-1.815 17.227-8.58 20.28-17.966l.423-1.303a5.757 5.757 0 00-.342-4.414" id="Fill-50" fill="#482F27"/>
        <path d="M133.18 204.864h-2.324a3.306 3.306 0 01-2.136-.78c6.917-1.119 12.966-5.63 15.944-12.131l1.157-2.528c1.328-2.9.055-6.34-2.837-7.67-2.892-1.331-6.323-.055-7.65 2.843l-.219.478a13.249 13.249 0 01-7.586 6.944v-24.976a14.872 14.872 0 007.672-7.41l4.36-9.41c1.34-2.893.083-6.34-2.802-7.682a5.717 5.717 0 00-4.412-.187 5.733 5.733 0 00-3.252 2.996l-2.665 5.752a5.754 5.754 0 00-4.67-2.402c-3.181 0-5.77 2.595-5.77 5.784v14.287a15.109 15.109 0 01-9.308-9.585l-.424-1.302a5.743 5.743 0 00-2.871-3.364 5.722 5.722 0 00-4.402-.343 5.738 5.738 0 00-3.356 2.878 5.758 5.758 0 00-.342 4.414l.424 1.302c3.052 9.387 10.882 16.152 20.279 17.966v20.791c0 8.218 6.669 14.903 14.866 14.903h2.323c5.118 0 9.282 4.174 9.282 9.305V228H154v-2.263c0-11.51-9.34-20.873-20.82-20.873" id="Fill-52" fill="#482F27"/>
        <path d="M189 226h51.545c4.833 0 7.948 5.18 5.723 9.518l-7.895 15.403c-2.23 4.349-6.67 7.079-11.514 7.079h-26.883L189 226z" id="Fill-54" fill="#8F5D3A"/>
        <path d="M203 236h43l-7.699 14.923A13.041 13.041 0 01226.717 258h-16.123L203 236z" id="Fill-56" fill="#B67243"/>
        <path d="M136 226H84.456c-4.834 0-7.948 5.18-5.724 9.518l7.895 15.403c2.23 4.349 6.67 7.079 11.515 7.079h26.882L136 226z" id="Fill-58" fill="#8F5D3A"/>
        <path d="M122 236H79l7.698 14.923A13.042 13.042 0 0098.284 258h16.122L122 236z" id="Fill-60" fill="#B67243"/>
        <path d="M225 277.5c0 33.965-27.535 61.5-61.5 61.5S102 311.465 102 277.5s27.535-61.5 61.5-61.5 61.5 27.535 61.5 61.5" id="Fill-62" fill="#8F5D3A"/>
        <path d="M205 326c0 22.644-18.356 41-41 41s-41-18.356-41-41 18.356-41 41-41 41 18.356 41 41" id="Fill-64" fill="#B67243"/>
        <path d="M164 303h-9.073c-7.733 0-10.874 9.868-4.542 14.27l9.072 6.308a7.968 7.968 0 009.085 0l9.073-6.308c6.331-4.402 3.19-14.27-4.542-14.27H164z" id="Fill-66" fill="#482F27"/>
        <path id="Fill-68" fill="#482F27" d="M182 258l20 20"/>
        <path d="M201.466 282a3.522 3.522 0 01-2.498-1.035l-19.933-19.933a3.533 3.533 0 114.998-4.997l19.932 19.932a3.534 3.534 0 01-2.499 6.033" id="Fill-70" fill="#482F27"/>
        <path id="Fill-72" fill="#482F27" d="M182 278l20-20"/>
        <path d="M205 258.534c0 .904-.345 1.808-1.035 2.499l-19.933 19.932a3.533 3.533 0 11-4.997-4.997l19.932-19.934a3.536 3.536 0 016.033 2.5" id="Fill-74" fill="#482F27"/>
        <path id="Fill-76" fill="#482F27" d="M128 258l20 20"/>
        <path d="M147.466 282a3.522 3.522 0 01-2.498-1.035l-19.933-19.933a3.533 3.533 0 114.998-4.997l19.932 19.932a3.534 3.534 0 01-2.499 6.033" id="Fill-78" fill="#482F27"/>
        <path id="Fill-80" fill="#482F27" d="M128 278l20-20"/>
        <path d="M151 258.534c0 .904-.345 1.808-1.035 2.499l-19.933 19.932a3.533 3.533 0 11-4.997-4.997l19.932-19.934a3.536 3.536 0 016.033 2.5" id="Fill-82" fill="#482F27"/>
        <path d="M181.312 346s8.014 21-3.632 21c-11.646 0-8.205-21-8.205-21h11.837z" id="Fill-84" fill="#ED2A7B"/>
        <path d="M181.312 346s8.014 21-3.632 21c-11.646 0-8.205-21-8.205-21h11.837z" id="Stroke-86" stroke="#ED2A7B"/>
        <path d="M175.685 346.832s3.597 4.91 1.824 13.168c0 0-.35-10.15-5.026-13.576s3.202.408 3.202.408" id="Fill-88" fill="#D91C5B"/>
        <path d="M147 346s20.345-4.5 33 0" id="Fill-90" fill="#482F27"/>
        <path d="M179.685 348c-.214 0-.432-.029-.648-.088-12.132-3.371-32.109.017-32.309.052-1.257.215-2.463-.58-2.69-1.778-.228-1.2.607-2.348 1.865-2.566.862-.149 21.26-3.603 34.428.052 1.228.341 1.933 1.567 1.576 2.737-.295.964-1.22 1.591-2.222 1.591" id="Fill-92" fill="#482F27"/>
      </g>
    </g>
  </g>
</svg>
