<?xml version="1.0" encoding="UTF-8"?>
<svg width="200px" height="29px" viewBox="0 0 200 29" version="1.1" xmlns="http://www.w3.org/2000/svg" xmlns:xlink="http://www.w3.org/1999/xlink">
    <title>TheGiftofDeath</title>
    <g id="Symbols" stroke="none" stroke-width="1" fill="none" fill-rule="evenodd">
        <g id="aami-logo-red" transform="translate(-11.000000, -15.000000)" fill="#482F27" fill-rule="nonzero">
            <path d="M20.2515,43 L20.2515,21.486 L23.4135,21.486 L23.4135,16.371 L11.7575,16.371 L11.7575,21.486 L14.9195,21.486 L14.9195,43 L20.2515,43 Z M30.3885,43 L30.3885,25.826 C30.3885,25.3713333 30.497,24.9838333 30.714,24.6635 C30.931,24.3431667 31.2255,24.183 31.5975,24.183 C32.0315,24.183 32.3621667,24.338 32.5895,24.648 C32.8168333,24.958 32.9305,25.361 32.9305,25.857 L32.9305,25.857 L32.9305,43 L38.3555,43 L38.3555,25.516 C38.3555,23.8213333 37.9628333,22.4883333 37.1775,21.517 C36.3921667,20.5456667 35.2348333,20.06 33.7055,20.06 C32.0728333,20.06 30.9671667,20.8866667 30.3885,22.54 L30.3885,22.54 L30.3885,16.216 L24.8085,16.216 L24.8085,43 L30.3885,43 Z M46.8185,43.248 C49.3191667,43.248 51.081,42.6228333 52.104,41.3725 C53.127,40.1221667 53.6385,38.1743333 53.6385,35.529 L53.6385,35.529 L53.6385,34.227 L48.2445,34.227 L48.2445,36.428 C48.2445,37.048 48.229,37.5181667 48.198,37.8385 C48.167,38.1588333 48.0636667,38.443 47.888,38.691 C47.7123333,38.939 47.4178333,39.063 47.0045,39.063 C46.4671667,39.063 46.1158333,38.8408333 45.9505,38.3965 C45.7851667,37.9521667 45.7025,37.3373333 45.7025,36.552 L45.7025,36.552 L45.7025,32.15 L53.5765,32.15 C53.6178333,31.1166667 53.6385,29.7733333 53.6385,28.12 L53.6385,28.12 L53.6385,26.477 C53.6385,22.199 51.4581667,20.06 47.0975,20.06 C44.9481667,20.06 43.2741667,20.6076667 42.0755,21.703 C40.8768333,22.7983333 40.2775,24.3896667 40.2775,26.477 L40.2775,26.477 L40.2775,35.591 C40.2775,38.133 40.7838333,40.0446667 41.7965,41.326 C42.8091667,42.6073333 44.4831667,43.248 46.8185,43.248 Z M48.2445,29.453 L45.6715,29.453 L45.6715,26.539 C45.6715,24.9063333 46.1261667,24.09 47.0355,24.09 C47.8415,24.09 48.2445,24.9063333 48.2445,26.539 L48.2445,26.539 L48.2445,29.453 Z M68.4255,43.248 C70.4095,43.248 71.8768333,42.4213333 72.8275,40.768 L72.8275,40.768 L73.7265,43 L75.8655,43 L75.8655,27.5 L69.3555,27.5 L69.3555,32.088 L70.7815,32.088 L70.7815,35.901 C70.7815,36.707 70.6781667,37.3166667 70.4715,37.73 C70.2648333,38.1433333 69.9031667,38.35 69.3865,38.35 C68.8698333,38.35 68.5081667,38.1433333 68.3015,37.73 C68.0948333,37.3166667 67.9915,36.707 67.9915,35.901 L67.9915,35.901 L67.9915,23.005 C67.9915,21.6823333 68.4978333,21.021 69.5105,21.021 C69.9651667,21.021 70.2803333,21.1966667 70.456,21.548 C70.6316667,21.8993333 70.7195,22.3953333 70.7195,23.036 L70.7195,23.036 L70.7195,25.423 L75.9275,25.423 C75.9275,23.315 75.7415,21.5893333 75.3695,20.246 C74.9975,18.9026667 74.3258333,17.8796667 73.3545,17.177 C72.3831667,16.4743333 71.0191667,16.123 69.2625,16.123 C67.0925,16.123 65.4598333,16.7533333 64.3645,18.014 C63.2691667,19.2746667 62.7215,21.1346667 62.7215,23.594 L62.7215,23.594 L62.7215,35.064 C62.7215,37.8126667 63.1916667,39.8638333 64.132,41.2175 C65.0723333,42.5711667 66.5035,43.248 68.4255,43.248 Z M83.2745,18.789 L83.2745,15.007 L77.8495,15.007 L77.8495,18.789 L83.2745,18.789 Z M83.2745,43 L83.2745,20.308 L77.8495,20.308 L77.8495,43 L83.2745,43 Z M91.3035,43 L91.3035,25.485 L92.3575,25.485 L92.3575,21.3 L91.1795,21.3 L91.1795,21.021 C91.1795,20.6076667 91.2208333,20.2976667 91.3035,20.091 C91.3861667,19.8843333 91.5721667,19.781 91.8615,19.781 C91.9855,19.781 92.1508333,19.812 92.3575,19.874 L92.3575,19.874 L92.3575,16.526 C91.6548333,16.2366667 90.7248333,16.092 89.5675,16.092 C87.1288333,16.092 85.9095,17.3113333 85.9095,19.75 L85.9095,19.75 L85.9095,21.3 L84.9795,21.3 L84.9485,25.423 L85.9095,25.423 L85.9095,43 L91.3035,43 Z M98.7745,43.248 C99.3325,43.248 99.906,43.2015 100.495,43.1085 C101.084,43.0155 101.5335,42.9276667 101.8435,42.845 L101.8435,42.845 L101.8435,39.125 C101.7815,39.125 101.6575,39.1353333 101.4715,39.156 C101.2855,39.1766667 101.089167,39.187 100.8825,39.187 C100.613833,39.187 100.4485,39.094 100.3865,38.908 C100.3245,38.722 100.2935,38.4326667 100.2935,38.04 L100.2935,38.04 L100.2935,25.299 L101.8435,25.299 L101.8435,21.176 L100.2935,21.176 L100.2935,16.371 L95.0235,16.371 L95.0235,21.176 L93.5045,21.176 L93.5045,25.299 L95.0235,25.299 L95.0235,39.466 C95.0235,40.7886667 95.2921667,41.7496667 95.8295,42.349 C96.3668333,42.9483333 97.3485,43.248 98.7745,43.248 Z M117.4055,43.248 C121.9315,43.248 124.1945,40.9023333 124.1945,36.211 L124.1945,36.211 L124.1945,27.097 C124.1945,24.9476667 123.59,23.2375 122.381,21.9665 C121.172,20.6955 119.5135,20.06 117.4055,20.06 C115.2975,20.06 113.639,20.6955 112.43,21.9665 C111.221,23.2375 110.6165,24.9476667 110.6165,27.097 L110.6165,27.097 L110.6165,36.211 C110.6165,40.9023333 112.8795,43.248 117.4055,43.248 Z M117.4055,39.063 C116.9715,39.063 116.651167,38.908 116.4445,38.598 C116.237833,38.288 116.1345,37.8643333 116.1345,37.327 L116.1345,37.327 L116.1345,26.229 C116.1345,24.9063333 116.558167,24.245 117.4055,24.245 C118.252833,24.245 118.6765,24.9063333 118.6765,26.229 L118.6765,26.229 L118.6765,37.327 C118.6765,37.8643333 118.573167,38.288 118.3665,38.598 C118.159833,38.908 117.8395,39.063 117.4055,39.063 Z M132.0995,43 L132.0995,25.485 L133.1535,25.485 L133.1535,21.3 L131.9755,21.3 L131.9755,21.021 C131.9755,20.6076667 132.016833,20.2976667 132.0995,20.091 C132.182167,19.8843333 132.368167,19.781 132.6575,19.781 C132.7815,19.781 132.946833,19.812 133.1535,19.874 L133.1535,19.874 L133.1535,16.526 C132.450833,16.2366667 131.520833,16.092 130.3635,16.092 C127.924833,16.092 126.7055,17.3113333 126.7055,19.75 L126.7055,19.75 L126.7055,21.3 L125.7755,21.3 L125.7445,25.423 L126.7055,25.423 L126.7055,43 L132.0995,43 Z M149.3975,43 C151.546833,43 153.0865,42.3386667 154.0165,41.016 C154.9465,39.6933333 155.401167,37.7196667 155.3805,35.095 L155.3805,35.095 L155.3185,22.633 C155.297833,20.5663333 154.812167,19.006 153.8615,17.952 C152.910833,16.898 151.484833,16.371 149.5835,16.371 L149.5835,16.371 L142.2365,16.371 L142.2365,43 L149.3975,43 Z M148.5295,38.288 L147.5995,38.288 L147.5995,21.021 L148.1885,21.021 C148.705167,21.021 149.0875,21.0726667 149.3355,21.176 C149.5835,21.2793333 149.754,21.4808333 149.847,21.7805 C149.94,22.0801667 149.9865,22.5296667 149.9865,23.129 L149.9865,23.129 L149.9865,36.862 C149.9865,37.8126667 149.500833,38.288 148.5295,38.288 L148.5295,38.288 Z M163.7815,43.248 C166.282167,43.248 168.044,42.6228333 169.067,41.3725 C170.09,40.1221667 170.6015,38.1743333 170.6015,35.529 L170.6015,35.529 L170.6015,34.227 L165.2075,34.227 L165.2075,36.428 C165.2075,37.048 165.192,37.5181667 165.161,37.8385 C165.13,38.1588333 165.026667,38.443 164.851,38.691 C164.675333,38.939 164.380833,39.063 163.9675,39.063 C163.430167,39.063 163.078833,38.8408333 162.9135,38.3965 C162.748167,37.9521667 162.6655,37.3373333 162.6655,36.552 L162.6655,36.552 L162.6655,32.15 L170.5395,32.15 C170.580833,31.1166667 170.6015,29.7733333 170.6015,28.12 L170.6015,28.12 L170.6015,26.477 C170.6015,22.199 168.421167,20.06 164.0605,20.06 C161.911167,20.06 160.237167,20.6076667 159.0385,21.703 C157.839833,22.7983333 157.2405,24.3896667 157.2405,26.477 L157.2405,26.477 L157.2405,35.591 C157.2405,38.133 157.746833,40.0446667 158.7595,41.326 C159.772167,42.6073333 161.446167,43.248 163.7815,43.248 Z M165.2075,29.453 L162.6345,29.453 L162.6345,26.539 C162.6345,24.9063333 163.089167,24.09 163.9985,24.09 C164.8045,24.09 165.2075,24.9063333 165.2075,26.539 L165.2075,26.539 L165.2075,29.453 Z M176.6775,43.248 C177.4835,43.248 178.181,42.9896667 178.77,42.473 C179.359,41.9563333 179.787833,41.233 180.0565,40.303 L180.0565,40.303 L180.0565,43 L185.4505,43 L185.4505,25.702 C185.4505,23.904 184.8615,22.5141667 183.6835,21.5325 C182.5055,20.5508333 180.976167,20.06 179.0955,20.06 C176.7395,20.06 175.039667,20.5353333 173.996,21.486 C172.952333,22.4366667 172.4305,24.028 172.4305,26.26 L172.4305,26.26 L172.4305,27.004 L177.7005,27.004 L177.7005,25.64 C177.7005,25.1853333 177.809,24.8236667 178.026,24.555 C178.243,24.2863333 178.496167,24.152 178.7855,24.152 C179.116167,24.152 179.400333,24.3121667 179.638,24.6325 C179.875667,24.9528333 179.9945,25.4126667 179.9945,26.012 L179.9945,26.012 L179.9945,28.337 L178.5065,28.833 C176.811833,29.3703333 175.551167,29.8611667 174.7245,30.3055 C173.897833,30.7498333 173.252,31.4473333 172.787,32.398 C172.322,33.3486667 172.0895,34.7126667 172.0895,36.49 C172.0895,38.66 172.415,40.3288333 173.066,41.4965 C173.717,42.6641667 174.920833,43.248 176.6775,43.248 Z M178.8165,39.032 C178.0105,39.032 177.6075,38.3603333 177.6075,37.017 L177.6075,37.017 L177.6075,34.103 C177.6075,33.2556667 177.798667,32.5943333 178.181,32.119 C178.563333,31.6436667 179.1575,31.251 179.9635,30.941 L179.9635,30.941 L179.9635,37.265 C179.9635,37.761 179.875667,38.1795 179.7,38.5205 C179.524333,38.8615 179.229833,39.032 178.8165,39.032 Z M192.2085,43.248 C192.7665,43.248 193.34,43.2015 193.929,43.1085 C194.518,43.0155 194.9675,42.9276667 195.2775,42.845 L195.2775,42.845 L195.2775,39.125 C195.2155,39.125 195.0915,39.1353333 194.9055,39.156 C194.7195,39.1766667 194.523167,39.187 194.3165,39.187 C194.047833,39.187 193.8825,39.094 193.8205,38.908 C193.7585,38.722 193.7275,38.4326667 193.7275,38.04 L193.7275,38.04 L193.7275,25.299 L195.2775,25.299 L195.2775,21.176 L193.7275,21.176 L193.7275,16.371 L188.4575,16.371 L188.4575,21.176 L186.9385,21.176 L186.9385,25.299 L188.4575,25.299 L188.4575,39.466 C188.4575,40.7886667 188.726167,41.7496667 189.2635,42.349 C189.800833,42.9483333 190.7825,43.248 192.2085,43.248 Z M202.5625,43 L202.5625,25.826 C202.5625,25.3713333 202.671,24.9838333 202.888,24.6635 C203.105,24.3431667 203.3995,24.183 203.7715,24.183 C204.2055,24.183 204.536167,24.338 204.7635,24.648 C204.990833,24.958 205.1045,25.361 205.1045,25.857 L205.1045,25.857 L205.1045,43 L210.5295,43 L210.5295,25.516 C210.5295,23.8213333 210.136833,22.4883333 209.3515,21.517 C208.566167,20.5456667 207.408833,20.06 205.8795,20.06 C204.246833,20.06 203.141167,20.8866667 202.5625,22.54 L202.5625,22.54 L202.5625,16.216 L196.9825,16.216 L196.9825,43 L202.5625,43 Z" id="TheGiftofDeath"></path>
        </g>
    </g>
</svg>