<svg xmlns="http://www.w3.org/2000/svg" xmlns:xlink="http://www.w3.org/1999/xlink" viewBox="0 0 60 263">
  <defs>
    <path id="path-2" d="M0 0h40v38H0z"/>
    <path id="path-4" d="M0 0h40v38H0z"/>
    <path id="path-6" d="M0 0h40v38H0z"/>
    <path id="path-8" d="M0 0h40v38H0z"/>
    <filter x="-55.4%" y="-7.1%" width="210.9%" height="114.2%" filterUnits="objectBoundingBox" id="filter-1">
      <feOffset dy="2" in="SourceAlpha" result="shadowOffsetOuter1"/>
      <feGaussianBlur stdDeviation="5.5" in="shadowOffsetOuter1" result="shadowBlurOuter1"/>
      <feColorMatrix values="0 0 0 0 0 0 0 0 0 0 0 0 0 0 0 0 0 0 0.27 0" in="shadowBlurOuter1" result="shadowMatrixOuter1"/>
      <feMerge>
        <feMergeNode in="shadowMatrixOuter1"/>
        <feMergeNode in="SourceGraphic"/>
      </feMerge>
    </filter>
  </defs>
  <g id="Page-1" stroke="none" stroke-width="1" fill="none" fill-rule="evenodd">
    <g id="iPhone-11-Pro-Max" transform="translate(-178)">
      <g id="string" filter="url(#filter-1)" transform="translate(185 -109)">
        <g id="Group" transform="translate(0 130)">
          <circle id="Oval-Copy-9" fill="#FFF" cx="22.5" cy="30.5" r="4.5"/>
          <circle id="Oval-Copy-10" fill="#FFF" cx="22.5" cy="4.5" r="4.5"/>
          <circle id="Oval-Copy-14" fill="#FFF" cx="22.5" cy="17.5" r="4.5"/>
          <g id="Group-3-Copy-2" transform="rotate(-7 266.748 9.475)">
            <mask id="mask-3" fill="#fff">
              <use xlink:href="#path-2"/>
            </mask>
            <path d="M10.22 35.667c4.008-2.706 6.82-6.203 9.123-10.25 1.438 4.464 3.482 8.482 6.863 11.993 1.197 1.243 3.067.393 2.967-1.356-.28-4.925-1.826-9.18-4.091-13.26 4.477.952 8.882 1.146 13.528-.104 1.67-.448 1.893-2.516.351-3.323-4.26-2.23-8.629-2.988-13.196-3.003 3.045-3.494 5.422-7.34 6.658-12.077.446-1.713-1.198-2.93-2.642-1.956-4.01 2.708-6.821 6.205-9.125 10.255C19.219 8.12 17.175 4.1 13.793.589c-1.196-1.243-3.065-.391-2.967 1.356.279 4.927 1.827 9.183 4.092 13.262-4.478-.952-8.883-1.147-13.528.102-1.669.449-1.895 2.516-.352 3.325 4.26 2.228 8.63 2.986 13.197 3-3.044 3.496-5.422 7.34-6.658 12.079-.446 1.713 1.199 2.93 2.642 1.954" id="Fill-1" fill="#FFF" mask="url(#mask-3)"/>
          </g>
        </g>
        <g id="Group-Copy" transform="translate(0 195)">
          <circle id="Oval-Copy-9" fill="#FFF" cx="22.5" cy="30.5" r="4.5"/>
          <circle id="Oval-Copy-10" fill="#FFF" cx="22.5" cy="4.5" r="4.5"/>
          <circle id="Oval-Copy-14" fill="#FFF" cx="22.5" cy="17.5" r="4.5"/>
          <g id="Group-3-Copy-2" transform="rotate(-7 266.748 9.475)">
            <mask id="mask-5" fill="#fff">
              <use xlink:href="#path-4"/>
            </mask>
            <path d="M10.22 35.667c4.008-2.706 6.82-6.203 9.123-10.25 1.438 4.464 3.482 8.482 6.863 11.993 1.197 1.243 3.067.393 2.967-1.356-.28-4.925-1.826-9.18-4.091-13.26 4.477.952 8.882 1.146 13.528-.104 1.67-.448 1.893-2.516.351-3.323-4.26-2.23-8.629-2.988-13.196-3.003 3.045-3.494 5.422-7.34 6.658-12.077.446-1.713-1.198-2.93-2.642-1.956-4.01 2.708-6.821 6.205-9.125 10.255C19.219 8.12 17.175 4.1 13.793.589c-1.196-1.243-3.065-.391-2.967 1.356.279 4.927 1.827 9.183 4.092 13.262-4.478-.952-8.883-1.147-13.528.102-1.669.449-1.895 2.516-.352 3.325 4.26 2.228 8.63 2.986 13.197 3-3.044 3.496-5.422 7.34-6.658 12.079-.446 1.713 1.199 2.93 2.642 1.954" id="Fill-1" fill="#FFF" mask="url(#mask-5)"/>
          </g>
        </g>
        <g id="Group-Copy-2" transform="translate(0 260)">
          <circle id="Oval-Copy-9" fill="#FFF" cx="22.5" cy="30.5" r="4.5"/>
          <circle id="Oval-Copy-10" fill="#FFF" cx="22.5" cy="4.5" r="4.5"/>
          <circle id="Oval-Copy-14" fill="#FFF" cx="22.5" cy="17.5" r="4.5"/>
          <g id="Group-3-Copy-2" transform="rotate(-7 266.748 9.475)">
            <mask id="mask-7" fill="#fff">
              <use xlink:href="#path-6"/>
            </mask>
            <path d="M10.22 35.667c4.008-2.706 6.82-6.203 9.123-10.25 1.438 4.464 3.482 8.482 6.863 11.993 1.197 1.243 3.067.393 2.967-1.356-.28-4.925-1.826-9.18-4.091-13.26 4.477.952 8.882 1.146 13.528-.104 1.67-.448 1.893-2.516.351-3.323-4.26-2.23-8.629-2.988-13.196-3.003 3.045-3.494 5.422-7.34 6.658-12.077.446-1.713-1.198-2.93-2.642-1.956-4.01 2.708-6.821 6.205-9.125 10.255C19.219 8.12 17.175 4.1 13.793.589c-1.196-1.243-3.065-.391-2.967 1.356.279 4.927 1.827 9.183 4.092 13.262-4.478-.952-8.883-1.147-13.528.102-1.669.449-1.895 2.516-.352 3.325 4.26 2.228 8.63 2.986 13.197 3-3.044 3.496-5.422 7.34-6.658 12.079-.446 1.713 1.199 2.93 2.642 1.954" id="Fill-1" fill="#FFF" mask="url(#mask-7)"/>
          </g>
        </g>
        <g id="Group-Copy-3" transform="translate(18 324)" fill="#FFF">
          <circle id="Oval-Copy-9" cx="4.5" cy="30.5" r="4.5"/>
          <circle id="Oval-Copy-10" cx="4.5" cy="4.5" r="4.5"/>
          <circle id="Oval-Copy-14" cx="4.5" cy="17.5" r="4.5"/>
        </g>
        <g id="Group-2" transform="translate(0 65)">
          <g id="Group-3-Copy" transform="rotate(-7 274.923 9.975)">
            <mask id="mask-9" fill="#fff">
              <use xlink:href="#path-8"/>
            </mask>
            <path d="M10.22 35.667c4.008-2.706 6.82-6.203 9.123-10.25 1.438 4.464 3.482 8.482 6.863 11.993 1.197 1.243 3.067.393 2.967-1.356-.28-4.925-1.826-9.18-4.091-13.26 4.477.952 8.882 1.146 13.528-.104 1.67-.448 1.893-2.516.351-3.323-4.26-2.23-8.629-2.988-13.196-3.003 3.045-3.494 5.422-7.34 6.658-12.077.446-1.713-1.198-2.93-2.642-1.956-4.01 2.708-6.821 6.205-9.125 10.255C19.219 8.12 17.175 4.1 13.793.589c-1.196-1.243-3.065-.391-2.967 1.356.279 4.927 1.827 9.183 4.092 13.262-4.478-.952-8.883-1.147-13.528.102-1.669.449-1.895 2.516-.352 3.325 4.26 2.228 8.63 2.986 13.197 3-3.044 3.496-5.422 7.34-6.658 12.079-.446 1.713 1.199 2.93 2.642 1.954" id="Fill-1" fill="#F0E9DF" mask="url(#mask-9)"/>
          </g>
        </g>
      </g>
    </g>
  </g>
</svg>
